<?xml version="1.0" standalone="no"?>
<!DOCTYPE svg PUBLIC "-//W3C//DTD SVG 20010904//EN"
 "http://www.w3.org/TR/2001/REC-SVG-20010904/DTD/svg10.dtd">
<svg version="1.0" xmlns="http://www.w3.org/2000/svg"
 width="714.000000pt" height="685.000000pt" viewBox="0 0 714.000000 685.000000"
 preserveAspectRatio="xMidYMid meet">
<metadata>
Created by potrace 1.13, written by Peter Selinger 2001-2015
</metadata>
<g transform="translate(0.000000,685.000000) scale(0.100000,-0.100000)"
fill="#3a3a3a" stroke="none">
<path d="M2527 6455 c-122 -20 -242 -64 -333 -121 -43 -27 -139 -81 -214 -120
-155 -80 -323 -188 -455 -291 -154 -120 -196 -163 -262 -274 -34 -57 -82 -130
-106 -162 -95 -127 -160 -283 -155 -373 1 -33 -4 -48 -30 -80 -46 -56 -73
-118 -89 -209 -8 -44 -26 -138 -40 -210 -45 -232 -42 -383 13 -654 41 -200 68
-258 244 -531 59 -91 122 -191 139 -222 18 -31 50 -76 72 -100 23 -25 71 -106
114 -193 68 -137 83 -158 163 -241 99 -103 147 -183 166 -277 11 -57 16 -64
52 -83 43 -23 45 -35 24 -112 -14 -56 -54 -99 -164 -181 -50 -37 -98 -76 -106
-85 -8 -10 -93 -84 -190 -165 -301 -251 -534 -497 -681 -716 -116 -174 -213
-405 -240 -577 -10 -58 -19 -81 -44 -111 -44 -51 -64 -121 -73 -254 l-7 -113
3407 0 3408 0 0 1708 c0 940 -2 1711 -4 1713 -3 3 -53 1 -113 -3 -59 -4 -306
-19 -548 -33 -463 -27 -678 -42 -707 -51 -28 -8 -57 5 -72 33 l-13 26 -7 -42
c-21 -136 -145 -247 -249 -226 -85 18 -194 122 -252 240 -33 66 -75 205 -75
247 0 10 -25 78 -56 151 -70 167 -102 278 -110 381 -9 107 4 160 70 301 83
176 127 221 226 235 l45 6 -30 13 c-23 10 -47 10 -102 2 -83 -12 -120 -3 -127
31 -3 13 -7 34 -9 48 -23 124 -103 425 -128 482 -24 54 -29 78 -24 105 4 24 2
40 -8 52 -12 14 -23 44 -43 121 -6 24 -101 162 -116 168 -4 2 -15 20 -24 40
-9 20 -21 47 -27 59 -6 13 -42 53 -81 89 -39 36 -87 80 -106 98 -19 18 -55 38
-79 45 -33 9 -61 30 -105 75 -65 66 -106 116 -106 127 0 4 -44 21 -97 38 -103
32 -184 76 -202 109 -10 19 -24 20 -218 24 -184 4 -214 7 -264 26 -31 12 -71
22 -90 21 -19 -1 -178 1 -354 4 -255 5 -338 4 -408 -8z m1117 -1573 c-2 -25 3
-31 26 -36 35 -6 95 -58 125 -106 12 -19 34 -68 49 -107 34 -90 93 -158 175
-202 71 -38 178 -62 236 -54 38 5 45 2 89 -36 26 -23 53 -41 61 -41 12 0 112
-148 224 -332 29 -47 75 -113 103 -145 146 -173 217 -350 208 -523 -6 -110 -4
-168 7 -182 18 -22 41 -146 53 -278 6 -69 20 -166 32 -216 23 -101 20 -130
-18 -171 -27 -29 -44 -63 -44 -89 0 -11 11 -14 43 -12 l42 3 -1 -86 -1 -86
-40 -37 c-45 -40 -68 -88 -109 -222 l-27 -91 -81 1 c-44 0 -87 -1 -94 -4 -9
-3 -21 16 -36 57 -37 100 -109 175 -152 159 -12 -5 -12 -12 5 -43 10 -21 29
-47 41 -58 12 -11 35 -49 51 -85 50 -108 73 -121 141 -74 37 26 39 26 58 9 14
-13 20 -31 20 -63 0 -40 -2 -44 -21 -39 -28 7 -77 -11 -89 -33 -16 -30 -12
-69 9 -81 17 -11 17 -14 3 -39 -15 -26 -14 -29 16 -75 36 -54 39 -76 16 -99
-12 -12 -28 -14 -75 -9 -55 5 -59 4 -59 -14 0 -14 9 -23 25 -27 32 -8 54 -51
37 -68 -9 -9 -20 -10 -42 -1 -17 6 -30 9 -30 6 0 -3 23 -30 50 -60 30 -32 50
-64 50 -78 0 -25 -53 -78 -122 -121 -65 -40 -118 -94 -139 -142 -19 -43 -34
-54 -105 -72 -22 -5 -49 -19 -59 -30 -10 -11 -31 -20 -47 -20 -37 0 -63 -14
-115 -61 -29 -26 -52 -39 -71 -39 -86 0 -212 87 -232 159 -11 41 -2 87 25 128
19 29 35 20 55 -28 15 -35 30 -23 30 24 0 32 20 43 49 28 22 -12 17 -25 59
144 11 44 23 87 27 96 6 16 0 16 -69 3 -136 -26 -223 -67 -270 -128 -34 -45
-79 -55 -141 -31 -82 31 -104 95 -40 111 14 3 25 14 25 23 3 132 6 150 24 170
15 17 16 23 6 36 -16 19 -50 19 -116 -2 -43 -13 -58 -14 -79 -5 -14 7 -40 12
-57 12 -25 0 -42 11 -78 48 -69 71 -79 140 -17 107 24 -12 28 -12 36 4 10 18
46 36 142 71 31 11 65 30 75 42 19 21 19 21 0 14 -11 -4 -67 -11 -125 -16
-134 -13 -176 -19 -223 -36 -45 -15 -48 -7 -12 36 35 41 81 63 194 95 120 34
144 46 208 109 65 62 78 85 113 204 25 87 26 92 8 92 -10 0 -25 -13 -34 -29
-20 -40 -30 -45 -60 -25 -36 24 -31 49 18 83 80 55 85 81 8 42 -51 -26 -107
-91 -122 -140 -11 -35 -16 -41 -41 -41 -31 0 -34 -10 -17 -59 16 -45 -4 -63
-99 -92 -104 -32 -210 -32 -269 -1 -50 26 -78 27 -143 6 -76 -25 -91 -18 -119
51 -38 97 -23 205 29 205 27 0 40 -22 50 -85 10 -61 23 -85 48 -85 29 0 1 339
-48 585 -11 55 -26 138 -34 184 -8 46 -27 107 -41 137 -47 95 -168 187 -290
219 -67 17 -183 20 -236 5 -28 -8 -45 -7 -74 6 -21 8 -79 18 -129 20 -148 8
-140 3 -132 87 25 269 24 274 -69 343 -111 81 -119 113 -49 205 92 121 207
188 440 258 l66 20 25 -27 25 -27 18 22 c20 25 59 43 95 43 13 0 28 6 32 13 4
7 34 33 66 57 67 50 91 88 82 131 -4 16 -9 29 -11 29 -3 0 -27 -18 -55 -40
-52 -41 -85 -50 -107 -28 -20 20 -14 42 24 87 58 67 135 97 183 71 16 -8 20
-5 25 23 7 37 38 85 114 180 l54 68 91 -3 c90 -3 92 -3 104 23 10 21 32 33
105 59 109 37 226 97 300 154 81 61 98 68 123 52 13 -9 20 -24 19 -44z m-996
-2461 c8 -4 25 -46 39 -92 51 -171 30 -347 -66 -543 -28 -56 -54 -114 -58
-130 -35 -116 -242 -83 -371 58 -84 92 -96 136 -98 358 -2 222 1 234 66 232
25 -1 65 -7 89 -13 33 -9 58 -9 95 -1 51 11 173 68 243 114 44 28 44 28 61 17z
m107 -1067 c60 -40 85 -64 116 -113 47 -73 35 -93 -24 -41 -26 23 -42 29 -74
27 -50 -2 -85 20 -108 68 -13 29 -15 43 -6 61 14 32 46 31 96 -2z"/>
<path d="M3619 3805 c-25 -19 -51 -45 -59 -60 -9 -17 -22 -25 -39 -25 -45 0
-124 -45 -255 -145 -71 -53 -150 -108 -178 -122 -39 -19 -49 -29 -46 -46 2
-12 12 -23 23 -25 28 -6 45 -21 45 -43 0 -25 26 -24 90 1 28 11 59 20 70 20
26 0 34 -33 16 -69 -22 -42 -20 -72 13 -185 l28 -99 49 -26 c44 -23 60 -26
154 -26 129 0 226 25 243 63 7 16 8 29 1 40 -11 16 -18 19 -116 47 -32 8 -58
21 -58 28 0 24 46 76 132 150 70 60 107 82 206 126 136 59 192 106 192 161 0
34 19 33 -160 10 -191 -25 -379 -79 -520 -150 -44 -22 -80 -35 -80 -29 0 24
118 127 183 159 37 18 70 37 73 42 20 32 132 80 286 124 129 36 133 39 75 64
-44 19 -222 50 -292 50 -18 -1 -47 -14 -76 -35z"/>
<path d="M4020 2526 c6 -8 40 -24 74 -36 85 -28 106 -44 106 -83 0 -24 3 -28
12 -19 19 19 44 14 111 -20 34 -18 65 -34 70 -36 4 -2 7 3 7 12 0 37 53 25 63
-15 4 -16 -4 -31 -34 -60 -21 -21 -39 -45 -39 -53 0 -9 12 -30 28 -46 31 -36
95 -50 125 -28 21 16 51 122 43 154 -20 77 -145 151 -301 179 -55 10 -137 28
-183 41 -97 28 -98 28 -82 10z"/>
<path d="M4259 2086 c-258 -110 -489 -244 -604 -351 l-50 -47 40 23 c22 13
121 75 220 139 204 133 254 160 290 160 21 0 25 -5 25 -28 0 -16 -9 -37 -20
-47 -24 -22 -27 -77 -4 -99 42 -42 98 1 135 104 17 48 36 77 72 112 45 44 57
77 32 84 -5 2 -67 -20 -136 -50z"/>
<path d="M4041 1640 c-127 -134 -184 -182 -248 -204 -41 -14 -56 -36 -24 -36
28 0 74 21 89 42 7 9 39 32 71 50 53 30 251 224 251 245 -1 40 -25 24 -139
-97z"/>
</g>
</svg>
